├ÿ┬│├ÿ┬▒├¢┼Æ├ÿ┬º├ÖΓÇ₧ ├ÿ┬¼├ÿ┬░├ÿ┬º├ÿ┬¿ ├Ö╦å├¢┼Æ ├Ö┬ü├ÿ┬╡├ÖΓÇ₧ ├ÿ┬º├Ö╦å├ÖΓÇ₧ ├ÖΓÇÜ├ÿ┬│├ÖΓÇª├ÿ┬¬ ├ÖΓÇí├ÿ┬º├¢┼Æ 1 ├ÿ┬¬├ÿ┬º 8 
├ÿ┬¿├ÿ┬º ├ÿ┬▓├¢┼Æ├ÿ┬▒ ├ÖΓÇá├Ö╦å├¢┼Æ├ÿ┬│ ├Ö┬ü├ÿ┬º├ÿ┬▒├ÿ┬│├¢┼Æ ├Ö╦å ├Ü┬⌐├¢┼Æ├Ö┬ü├¢┼Æ├ÿ┬¬ 
480p

      Format : AVI
      Format/Info : Audio Video Interleave
      File size : 350 MiB
      Duration : 41mn 15s
      Overall bit rate : 1 187 Kbps
      Writing application : MEncoder dev-SVN-r26940
      Writing library : MPlayer
   Video #0
      ID : 0
      Format : MPEG-4 Visual
      Format profile : AdvancedSimple@L5
      Format settings, BVOP : Yes
      Format settings, QPel : No
      Format settings, GMC : No warppoints
      Format settings, Matrix : Default (H.263)
      Muxing mode : Packed bitstream
      Codec ID : XVID
      Codec ID/Hint : XviD
      Duration : 41mn 15s
      Bit rate : 1 045 Kbps
      Width : 624 pixels
      Height : 352 pixels
      Display aspect ratio : 16:9
      Frame rate : 23.976 fps
      Resolution : 24 bits
      Colorimetry : 4:2:0
      Scan type : Progressive
      Bits/(Pixel*Frame) : 0.198
      Stream size : 308 MiB (88%)
      Writing library : XviD 1.2.1 (UTC 2008-12-04)
   Audio #1
      ID : 1
      Format : MPEG Audio
      Format version : Version 1
      Format profile : Layer 3
      Codec ID : 55
      Codec ID/Hint : MP3
      Duration : 41mn 15s
      Bit rate mode : Variable
      Bit rate : 128 Kbps
      Channel(s) : 2 channels
      Sampling rate : 48.0 KHz
      Resolution : 16 bits
      Stream size : 38.0 MiB (11%)
      Alignment : Aligned on interleaves
      Interleave, duration : 24 ms (0.58 video frame)
      Interleave, preload duration : 542 ms